<svg xmlns="http://www.w3.org/2000/svg" width="332.006" height="89.206" viewBox="0 0 332.006 89.206"><defs><style>.a{fill:#029347;}.a,.b,.c,.d,.e,.f,.g{fill-rule:evenodd;}.b{fill:#0293d2;}.c{fill:#16ab4b;}.d{fill:#60ba46;}.e{fill:#88c441;}.f{fill:#63bbe2;}.g{fill:#0b8d46;}</style></defs><path class="a" d="M166.478,100.337c0-7.485.025-14.96-.025-22.445-.012-1.189.306-1.554,1.514-1.52,2.906.086,5.82-.025,8.729.061.821.018,1.946-.634,2.424.818.1.331.821-.052,1.251-.141,5.339-1.186,10.537-1.042,15.4,1.836,1.25.742,2.394,2.268,3.614,2.293,1.143.018,2.253-1.591,3.485-2.28a19.58,19.58,0,0,1,29.381,16.814c.175,9.075,0,18.157.067,27.238,0,1.2-.414,1.419-1.474,1.407-3.252-.055-6.5-.07-9.765.006-1.171.025-1.395-.414-1.388-1.483q.078-13.282.012-26.555c-.018-4.407-3.077-7.567-7.144-7.521a7.111,7.111,0,0,0-6.991,7.172c-.058,5.594-.015,11.19-.015,16.787,0,3.365-.043,6.734.024,10.1.018,1.054-.175,1.532-1.376,1.5q-4.883-.115-9.765,0c-1.22.037-1.37-.472-1.364-1.5q.055-13.36.012-26.724c-.024-5.465-5.413-8.987-10.136-6.614a6.856,6.856,0,0,0-4.015,6.614c.028,8.849-.025,17.7.043,26.549.009,1.382-.4,1.719-1.713,1.677-3.019-.089-6.053-.113-9.075.006-1.487.061-1.75-.466-1.738-1.833C166.515,115.18,166.478,107.76,166.478,100.337Z" transform="translate(-24.611 -43.026)"/><path class="a" d="M228.537,124.005c-.7-.717-.205-1.6-.3-2.4a25.885,25.885,0,0,1-.021-2.731,23.892,23.892,0,0,1-21.528,4.959,22.655,22.655,0,0,1-13.051-8.554,23.93,23.93,0,0,1,.834-30.585,23.073,23.073,0,0,1,16.2-8.19,24.069,24.069,0,0,1,17.648,5.658V76.685a2.9,2.9,0,0,0,1.814.328c2.967,0,5.934.031,8.9-.018,1.045-.015,1.548.2,1.548,1.395q-.055,21.93-.012,43.851c0,1.036-.319,1.413-1.37,1.395-2.97-.052-5.943-.031-8.91-.006C229.7,123.628,229.018,123.4,228.537,124.005Zm-4.024-23.579A12.1,12.1,0,0,0,212.565,88.4a12.348,12.348,0,0,0-12.039,12.039,12.143,12.143,0,0,0,12.137,12.048A11.947,11.947,0,0,0,224.513,100.426Z" transform="translate(20.973 -42.769)"/><path class="a" d="M173.769,136.415c-8.922.687-15.708-3.942-21.789-10.111-.521-.539-.349-.821.061-1.238,2.547-2.617,5.1-5.223,7.6-7.886.668-.711,1.076-.257,1.566.1a44.634,44.634,0,0,0,8.824,5.186,12.632,12.632,0,0,0,6.479,1.208,6.752,6.752,0,0,0,4.944-3.316c.867-1.287.435-2.483-.432-3.607-2.118-2.768-4.944-4.689-7.788-6.6-4.907-3.3-10.3-5.86-14.577-10.121a16.179,16.179,0,0,1,.368-23.744c4.781-4.423,10.642-5.618,16.9-5.811,8.53-.251,14.739,3.951,19.965,10.154.423.5.432.788-.034,1.251q-3.972,4.014-7.874,8.079c-.595.619-.929.57-1.474-.046A29.25,29.25,0,0,0,181.6,85.16a11.993,11.993,0,0,0-9.6-1.971,6.786,6.786,0,0,0-4.184,2.755c-1.738,2.3-1.6,4.227.567,6.142,3.442,3.04,7.546,5.088,11.423,7.488,4.466,2.777,8.83,5.676,12.128,9.885a15.3,15.3,0,0,1,1.186,16.738C188.9,133.571,182.462,136.85,173.769,136.415Z" transform="translate(-55.153 -55.093)"/><path class="a" d="M223.579,79.516c.006-2.568.04-5.137-.025-7.711-.015-.892.248-1.192,1.156-1.174,3.365.043,6.743.055,10.105-.006,1.073-.018,1.186.451,1.186,1.33-.037,4.974.012,9.937-.049,14.9-.015,1.18.276,1.557,1.5,1.532,4.334-.07,8.68.018,13.02-.055,1.22-.015,1.244.306.88,1.336-2.36,6.657-7.31,9.924-14.044,10.917-.659.1-1.373-.046-1.349,1.048.08,4.849-.077,9.7.181,14.546.251,4.947,2.385,6.8,7.865,7.371a37.413,37.413,0,0,0,4.1.19c.846-.006,1.22.187,1.2,1.131-.055,3.372-.025,6.743-.015,10.111,0,.582.08,1.137-.812,1.137-5.382.006-10.749-.006-15.708-2.568-5.045-2.6-7.426-7.046-8.493-12.361-1.131-5.658-.595-11.38-.687-17.072-.055-3.411,0-3.411-3.35-3.411-2.89,0-2.89,0-2.89-2.988,0-2.682.049-5.364-.024-8.046-.028-1.073.319-1.4,1.361-1.336,1.25.086,2.516-.028,3.77.037.9.055,1.165-.257,1.149-1.156C223.542,84.65,223.579,82.081,223.579,79.516Z" transform="translate(80.444 -54.752)"/><path class="a" d="M219.455,86.186a17.878,17.878,0,0,1,9.259-8.763,16.5,16.5,0,0,1,6.55-1.048c.907.018,1.306.288,1.29,1.293-.058,3.31-.031,6.626-.021,9.937,0,.616.055,1.024-.877.978a14.987,14.987,0,0,0-15.2,12.594,41.1,41.1,0,0,0-.365,7.512c-.025,4.742-.046,9.483.018,14.218.012,1.036-.251,1.395-1.324,1.376-3.485-.064-6.967-.077-10.452,0-1.125.018-1.293-.389-1.293-1.388q.037-22.528,0-45.058c0-1.03.236-1.388,1.324-1.361,3.249.074,6.507.067,9.762,0,1.036-.015,1.388.245,1.361,1.324C219.406,80.6,219.455,83.391,219.455,86.186Z" transform="translate(59.211 -42.885)"/><path class="b" d="M191.174,103.5c-19.254,11.046-39.845,14.044-61.569,10.249-.5-.089-.993-.251-1.49-.383A57.287,57.287,0,0,1,130.3,99.48a73.372,73.372,0,0,1,5.45-14.985c.313.092.625.175.932.257,0,.69.555.953,1.015,1.263a101.327,101.327,0,0,0,15.564,8.861,87.653,87.653,0,0,0,33.972,8.033A9.575,9.575,0,0,1,191.174,103.5Z" transform="translate(-103.765 -26.108)"/><path class="c" d="M127.238,84.276a89.143,89.143,0,0,1,21.427-18.485c.509-.319.993-.595,1.477.025.07.441.288.693.772.579v-.012c-.208.828.307,1.4.69,2.029,1.238,2.047,2.55,4.052,3.656,6.167a71.994,71.994,0,0,1,8,26.944,75.273,75.273,0,0,1-1.462,22.521,1.929,1.929,0,0,1-.264.006c-2.982-7.022-7.221-13.29-11.77-19.361A87.34,87.34,0,0,0,127.238,84.276Z" transform="translate(-105.576 -65.445)"/><path class="d" d="M145.879,123.412a75.274,75.274,0,0,0,1.462-22.521,72,72,0,0,0-8-26.944c-1.106-2.115-2.418-4.119-3.657-6.167-.383-.628-.9-1.2-.69-2.029a71.864,71.864,0,0,1,14.571,11.236A88.937,88.937,0,0,1,163.19,93.419a83.669,83.669,0,0,1,10.476,22.341,96.936,96.936,0,0,1-13.593,4.981C155.4,121.957,150.734,123.207,145.879,123.412Z" transform="translate(-89.656 -64.814)"/><path class="c" d="M152.152,97.312A73.371,73.371,0,0,0,146.7,112.3a57.288,57.288,0,0,0-2.182,13.887c-8.217-1.364-15.867-4.383-23.352-7.92-1.159-.552-1.2-1.088-.677-2.191a72.929,72.929,0,0,1,18.264-23.812A79.729,79.729,0,0,1,156.489,80.8c.386-.184.907-.2,1.06-.736.987-.4,1.952-.824,2.955-1.155.965-.316,1.916-.987,3.007-.371-1.241,1.713-2.513,3.39-3.7,5.125A74.208,74.208,0,0,0,152.152,97.312Z" transform="translate(-120.17 -38.925)"/><path class="e" d="M163.367,92.373c-1.091-.616-2.041.055-3.007.371-1,.331-1.968.76-2.955,1.155-1.14-.12-2.057.558-3.05.935a74.222,74.222,0,0,0-27.793,18.785c-2.21,2.357-4.15,4.968-6.323,7.6a63.089,63.089,0,0,1,2.247-13.235,92.355,92.355,0,0,1,18.687-35.943,4.815,4.815,0,0,1,.515-.447A87.341,87.341,0,0,1,164.216,92C163.934,92.127,163.652,92.247,163.367,92.373Z" transform="translate(-120.027 -52.759)"/><path class="f" d="M154.218,89.72c4.855-.205,9.517-1.456,14.194-2.673a96.932,96.932,0,0,0,13.593-4.981,77.521,77.521,0,0,1,3.433,15.417,76.134,76.134,0,0,1,.68,9.345c.006.641.239,1.422-.714,1.686a9.575,9.575,0,0,0-3.945-.592,87.652,87.652,0,0,1-33.972-8.033,101.327,101.327,0,0,1-15.564-8.861c-.46-.31-1.015-.573-1.015-1.263a9.545,9.545,0,0,1,1.7-.031,78.785,78.785,0,0,0,13.936.671,26.034,26.034,0,0,0,7.411-.68A1.932,1.932,0,0,0,154.218,89.72Z" transform="translate(-97.995 -31.122)"/><path class="g" d="M201.724,124.072c.481-.61,1.159-.377,1.756-.377,2.967-.025,5.94-.046,8.91.006,1.051.018,1.37-.359,1.37-1.395q-.037-21.925.012-43.851c0-1.2-.5-1.41-1.548-1.395-2.97.049-5.937.018-8.9.018a2.9,2.9,0,0,1-1.814-.328c.8-.595,1.729-.264,2.587-.276,2.909-.049,5.811.025,8.72-.043,1.091-.021,1.48.23,1.474,1.4q-.055,22.486-.021,44.982c0,.641.211,1.413-.929,1.395C209.469,124.145,205.6,124.121,201.724,124.072Z" transform="translate(47.786 -42.835)"/><path class="d" d="M135.483,66.145c-.484.113-.7-.138-.772-.579A.846.846,0,0,1,135.483,66.145Z" transform="translate(-90.144 -65.196)"/></svg>